<svg  className="svg-icon" viewBox="0 0 42 43" fill="none" xmlns="http://www.w3.org/2000/svg">
<path d="M17.6263 41.6669C19.6179 41.6669 21.2324 40.0524 21.2324 38.0608C21.2324 36.0692 19.6179 34.4547 17.6263 34.4547C15.6348 34.4547 14.0203 36.0692 14.0203 38.0608C14.0203 40.0524 15.6348 41.6669 17.6263 41.6669Z" stroke="white" stroke-width="2.5"/>
<path d="M34.4547 41.6669C36.4463 41.6669 38.0608 40.0524 38.0608 38.0608C38.0608 36.0692 36.4463 34.4547 34.4547 34.4547C32.4631 34.4547 30.8486 36.0692 30.8486 38.0608C30.8486 40.0524 32.4631 41.6669 34.4547 41.6669Z" stroke="white" stroke-width="2.5"/>
<path d="M2 2H6.80811L15.233 28.4446H34.4547" stroke="white" stroke-width="2.5" stroke-linecap="round" stroke-linejoin="round"/>
<path d="M13.3578 22.4345L8.72803 8.01013H38.7972C39.6177 8.01013 40.1968 8.81393 39.9374 9.59226L35.9308 21.6125C35.7671 22.1034 35.3077 22.4345 34.7903 22.4345H13.3578Z" stroke="white" stroke-width="2.5" stroke-linecap="round" stroke-linejoin="round"/>
</svg>
