<svg className="svg-icon" viewBox="0 0 31 61" fill="none" xmlns="http://www.w3.org/2000/svg">
<g clip-path="url(#clip0_1_2)">
<path d="M59.8474 23.5382C59.4244 22.2257 58.2028 21.3357 56.8247 21.3357H38.5793L33.0224 4.03379C32.6006 2.72129 31.3796 1.82973 30 1.82973C28.6205 1.82973 27.3994 2.72129 26.9776 4.03379L21.4208 21.3356H3.17543C1.79719 21.3356 0.575626 22.2255 0.152579 23.5381C-0.269179 24.8506 0.203673 26.2861 1.32434 27.0891L16.1188 37.7114L10.4237 55.0012C9.99082 56.3129 10.4563 57.7516 11.5723 58.5635C12.6889 59.3751 14.202 59.3717 15.3152 58.5567L30 47.7962L44.685 58.5568C45.7983 59.372 47.3113 59.3754 48.4281 58.5636C49.5439 57.7518 50.0094 56.313 49.5778 55.0013L43.8813 37.7115L58.6758 27.0893C59.7963 26.2862 60.2693 24.8506 59.8474 23.5382Z" fill="#FFDA1B"/>
</g>
<defs>
<clipPath id="clip0_1_2">
<rect width="31" height="61" fill="white"/>
</clipPath>
</defs>
</svg>
