<svg className="svg-icon" viewBox="0 0 44 39" fill="none" xmlns="http://www.w3.org/2000/svg">
<path d="M40.0232 3.65004C38.8757 2.49001 37.509 1.56991 36.0025 0.943262C34.496 0.316637 32.8797 -0.00401211 31.2482 3.78915e-05C29.6165 -0.00401211 28.0005 0.316637 26.494 0.943262C24.9875 1.56991 23.6207 2.49001 22.4732 3.65004L21.7732 4.37504L21.0732 3.67501C18.7525 1.35454 15.6051 0.0509128 12.3232 0.0509128C9.04138 0.0509128 5.89395 1.35454 3.57322 3.67501C1.28287 6.01164 0 9.15311 0 12.425C0 15.697 1.28287 18.8385 3.57322 21.175L20.4982 38.15C20.8497 38.5012 21.3262 38.6985 21.8232 38.6985C22.32 38.6985 22.7967 38.5012 23.1482 38.15L40.0732 21.175C42.3645 18.8307 43.643 15.6802 43.6337 12.4023C43.6245 9.12431 42.3277 5.98119 40.0232 3.65004Z" fill="#939393"/>
</svg>
