<svg   className="svg-icon" viewBox="0 0 121 83" fill="none" xmlns="http://www.w3.org/2000/svg">
<path d="M3.00395 0H70.3034C71.9629 0 73.3071 1.42364 73.3071 3.17908V50.6052C73.3071 52.3606 71.9629 53.78 70.3034 53.78H3.00395C1.34446 53.78 0.00023067 52.3609 0.00023067 50.6052V3.17908C0.00023067 1.42364 1.34446 0 3.00395 0Z" fill="#323232"/>
<path d="M96.7102 64.3273C101.367 64.3273 105.145 68.3161 105.145 73.2423C105.145 78.1665 101.367 82.1595 96.7102 82.1595C92.0552 82.1595 88.2816 78.1665 88.2816 73.2423C88.2816 68.3161 92.0552 64.3273 96.7102 64.3273Z" fill="#323232"/>
<path d="M2.50294 57.5163H74.3361C75.7179 57.5163 76.8409 56.3286 76.8409 54.8676V15.3252C76.8409 13.8618 77.9597 12.6764 79.3457 12.6764H102.162C102.905 12.6764 103.609 13.0269 104.083 13.6281L120.42 34.3616C120.796 34.8355 121 35.4367 121 36.0547V54.2413V63.7512C121 65.2124 119.879 66.3978 118.498 66.3978H105.909C103.87 63.3421 100.509 61.3361 96.7102 61.3361C92.9133 61.3361 89.5546 63.3421 87.5132 66.3978H36.1339C34.0946 63.3421 30.7361 61.3361 26.9369 61.3361C23.1382 61.3361 19.7818 63.3421 17.7402 66.3978H2.5027C1.12089 66.3978 -1.90735e-06 65.2124 -1.90735e-06 63.7512V60.1651C0.000234421 58.702 1.12113 57.5163 2.50294 57.5163ZM111.854 38.1606V36.3281C111.854 35.7018 111.651 35.0945 111.277 34.6039L100.849 21.0237C100.356 20.3852 99.622 20.0158 98.8454 20.0158H88.628C87.2003 20.0158 86.044 21.2367 86.044 22.7437V38.1608C86.044 39.6679 87.2006 40.889 88.628 40.889H109.274C110.697 40.8888 111.854 39.6677 111.854 38.1606Z" fill="#323232"/>
<path d="M26.9369 64.3273C31.5938 64.3273 35.3677 68.3161 35.3677 73.2423C35.3677 78.1665 31.5935 82.1595 26.9369 82.1595C22.2822 82.1595 18.5064 78.1665 18.5064 73.2423C18.5064 68.3161 22.2824 64.3273 26.9369 64.3273Z" fill="#323232"/>
</svg>
